<svg width="308" height="100" viewBox="0 0 308 100" fill="none" xmlns="http://www.w3.org/2000/svg">
<g clip-path="url(#clip0_3_3)">
<path d="M70.9948 85.0001H24.2008C23.0878 85.0001 22.0202 84.5874 21.2326 83.8526C20.4449 83.1177 20.0016 82.1208 20 81.0809V18.9023C19.998 18.3894 20.1047 17.8812 20.314 17.407C20.5233 16.9328 20.831 16.502 21.2194 16.1395C21.6082 15.7744 22.0712 15.4856 22.581 15.29C23.0909 15.0943 23.6375 14.9958 24.1886 15.0001H75.7992C76.9129 15.0016 77.9804 15.4157 78.7679 16.1514C79.5553 16.8871 79.9984 17.8846 80 18.9251V68.0242V73.9259V84.983L70.9948 85.0001ZM76.3845 81.6505V73.8519V18.9251C76.3824 18.7804 76.3213 18.6419 76.2138 18.5377C76.1033 18.4352 75.9549 18.3761 75.7992 18.3725H24.2008C24.1194 18.3675 24.0377 18.3788 23.9613 18.4056C23.8849 18.4325 23.8155 18.4743 23.7577 18.5282C23.7 18.5821 23.6553 18.647 23.6265 18.7184C23.5978 18.7898 23.5857 18.8661 23.5911 18.9422V81.0809C23.5948 81.2236 23.6558 81.3598 23.7618 81.4625C23.8739 81.5664 24.0247 81.6256 24.1825 81.6277H76.3845V81.6505ZM31.5842 74.2449V70.7472H53.5942V74.2449H31.5842ZM31.5842 64.8626V61.3649H65.3369V64.8569L31.5842 64.8854V64.8626ZM65.3064 51.4585V54.9391H60.0082V51.4585H65.3064ZM55.8318 48.3652V54.9106H50.5335V48.3652H55.8318ZM46.3632 38.9886V54.9391H41.065V38.9886H46.3632ZM36.8886 32.4261V54.9106H31.5842V32.4261H36.8886ZM62.1543 32.5799L70.7266 32.6084C70.7232 33.6683 70.4957 34.7171 70.0573 35.6947C69.6189 36.6723 68.9782 37.5594 68.172 38.305C67.7945 38.6504 67.3844 38.9631 66.9465 39.2392L62.1543 32.5799ZM61.2763 30.9905L60.813 22.4456C60.8113 22.4052 60.8182 22.3649 60.8333 22.327C60.8483 22.2891 60.8712 22.2543 60.9007 22.2247C60.9301 22.1951 60.9655 22.1712 61.0049 22.1543C61.0442 22.1375 61.0867 22.1281 61.13 22.1266C63.5139 21.8987 66.3002 22.9697 68.0439 24.4622C69.8308 25.9997 70.9213 28.117 71.0924 30.381C71.0974 30.4617 71.0683 30.541 71.0112 30.6017C70.9542 30.6625 70.8738 30.6999 70.7876 30.7057L61.6421 31.3209C61.5558 31.3256 61.4709 31.2984 61.4059 31.2451C61.3408 31.1918 61.3009 31.1167 61.2946 31.0361L61.2763 30.9905ZM62.2457 30.381L69.7755 29.7316C69.2267 25.9661 66.2087 23.2488 61.8494 22.9412L62.2457 30.381ZM60.2398 32.2096L64.8369 39.6152C63.6652 40.2368 62.3615 40.6101 61.0182 40.7084C59.6749 40.8068 58.3248 40.6279 57.0638 40.1844C55.8027 39.741 54.6614 39.0438 53.7209 38.1423C52.7803 37.2408 52.0635 36.157 51.6212 34.9678C51.179 33.7786 51.022 32.513 51.1616 31.2609C51.3011 30.0087 51.7337 28.8005 52.4287 27.7219C53.1237 26.6433 54.0641 25.7208 55.1832 25.0196C56.3023 24.3185 57.5728 23.8559 58.9046 23.6647L60.2398 32.2096Z" fill="#155DFC"/>
</g>
<path d="M134.455 63H125.582V36.8182H134.634C137.233 36.8182 139.466 37.3423 141.332 38.3906C143.207 39.4304 144.648 40.9261 145.653 42.8778C146.659 44.8295 147.162 47.1648 147.162 49.8835C147.162 52.6108 146.655 54.9545 145.641 56.9148C144.635 58.875 143.182 60.3793 141.281 61.4276C139.389 62.4759 137.114 63 134.455 63ZM130.325 58.8963H134.224C136.048 58.8963 137.57 58.5639 138.788 57.8991C140.007 57.2259 140.923 56.2244 141.537 54.8949C142.151 53.5568 142.457 51.8864 142.457 49.8835C142.457 47.8807 142.151 46.2187 141.537 44.8977C140.923 43.5682 140.016 42.5753 138.814 41.919C137.621 41.2543 136.138 40.9219 134.365 40.9219H130.325V58.8963ZM151.464 63V43.3636H156.092V63H151.464ZM153.79 40.5767C153.058 40.5767 152.427 40.3338 151.898 39.848C151.37 39.3537 151.106 38.7614 151.106 38.071C151.106 37.3722 151.37 36.7798 151.898 36.294C152.427 35.7997 153.058 35.5526 153.79 35.5526C154.532 35.5526 155.163 35.7997 155.683 36.294C156.211 36.7798 156.475 37.3722 156.475 38.071C156.475 38.7614 156.211 39.3537 155.683 39.848C155.163 40.3338 154.532 40.5767 153.79 40.5767ZM169.39 70.7727C167.728 70.7727 166.301 70.5469 165.108 70.0952C163.914 69.652 162.956 69.0554 162.231 68.3054C161.507 67.5554 161.004 66.7244 160.723 65.8125L164.89 64.8026C165.078 65.1861 165.35 65.5653 165.708 65.9403C166.066 66.3239 166.548 66.6392 167.153 66.8864C167.767 67.142 168.538 67.2699 169.467 67.2699C170.779 67.2699 171.866 66.9503 172.727 66.3111C173.588 65.6804 174.018 64.6406 174.018 63.1918V59.4716H173.788C173.549 59.9489 173.2 60.4389 172.74 60.9418C172.288 61.4446 171.687 61.8665 170.937 62.2074C170.196 62.5483 169.262 62.7188 168.137 62.7188C166.629 62.7188 165.261 62.3651 164.034 61.6577C162.815 60.9418 161.843 59.8764 161.119 58.4616C160.403 57.0384 160.045 55.2571 160.045 53.1179C160.045 50.9616 160.403 49.142 161.119 47.6591C161.843 46.1676 162.819 45.0384 164.047 44.2713C165.274 43.4957 166.642 43.108 168.15 43.108C169.301 43.108 170.247 43.304 170.988 43.696C171.738 44.0795 172.335 44.544 172.778 45.0895C173.221 45.6264 173.558 46.1335 173.788 46.6108H174.044V43.3636H178.608V63.3196C178.608 64.9986 178.207 66.3878 177.406 67.4872C176.605 68.5866 175.51 69.4091 174.12 69.9545C172.731 70.5 171.154 70.7727 169.39 70.7727ZM169.429 59.0881C170.409 59.0881 171.244 58.8494 171.934 58.3722C172.625 57.8949 173.149 57.2088 173.507 56.3139C173.865 55.419 174.044 54.3452 174.044 53.0923C174.044 51.8565 173.865 50.7741 173.507 49.8452C173.157 48.9162 172.637 48.196 171.947 47.6847C171.265 47.1648 170.426 46.9048 169.429 46.9048C168.397 46.9048 167.537 47.1733 166.846 47.7102C166.156 48.2472 165.636 48.9844 165.287 49.9219C164.937 50.8509 164.762 51.9077 164.762 53.0923C164.762 54.294 164.937 55.3466 165.287 56.25C165.645 57.1449 166.169 57.8437 166.859 58.3466C167.558 58.8409 168.414 59.0881 169.429 59.0881ZM183.35 63V43.3636H187.978V63H183.35ZM185.677 40.5767C184.944 40.5767 184.314 40.3338 183.785 39.848C183.257 39.3537 182.993 38.7614 182.993 38.071C182.993 37.3722 183.257 36.7798 183.785 36.294C184.314 35.7997 184.944 35.5526 185.677 35.5526C186.419 35.5526 187.049 35.7997 187.569 36.294C188.098 36.7798 188.362 37.3722 188.362 38.071C188.362 38.7614 188.098 39.3537 187.569 39.848C187.049 40.3338 186.419 40.5767 185.677 40.5767ZM201.871 63V36.8182H211.69C213.701 36.8182 215.388 37.1676 216.752 37.8665C218.124 38.5653 219.16 39.5455 219.859 40.8068C220.566 42.0597 220.92 43.5213 220.92 45.1918C220.92 46.8707 220.562 48.3281 219.846 49.5639C219.138 50.7912 218.094 51.7415 216.714 52.4148C215.333 53.0795 213.637 53.4119 211.626 53.4119H204.633V49.4744H210.987C212.163 49.4744 213.126 49.3125 213.876 48.9886C214.626 48.6562 215.18 48.1747 215.538 47.544C215.904 46.9048 216.087 46.1207 216.087 45.1918C216.087 44.2628 215.904 43.4702 215.538 42.8139C215.171 42.1491 214.613 41.6463 213.863 41.3054C213.113 40.956 212.146 40.7812 210.961 40.7812H206.614V63H201.871ZM215.397 51.1364L221.879 63H216.586L210.219 51.1364H215.397ZM233.493 63.3835C231.524 63.3835 229.824 62.9744 228.392 62.1562C226.969 61.3295 225.874 60.1619 225.107 58.6534C224.339 57.1364 223.956 55.3509 223.956 53.2969C223.956 51.277 224.339 49.5043 225.107 47.9787C225.882 46.4446 226.964 45.2514 228.354 44.3991C229.743 43.5384 231.375 43.108 233.25 43.108C234.46 43.108 235.602 43.304 236.676 43.696C237.759 44.0795 238.713 44.6761 239.54 45.4858C240.375 46.2955 241.031 47.3267 241.509 48.5795C241.986 49.8239 242.224 51.3068 242.224 53.0284V54.4474H226.129V51.3281H237.788C237.78 50.4418 237.588 49.6534 237.213 48.9631C236.838 48.2642 236.314 47.7145 235.641 47.3139C234.976 46.9134 234.2 46.7131 233.314 46.7131C232.368 46.7131 231.537 46.9432 230.821 47.4034C230.105 47.8551 229.547 48.4517 229.146 49.1932C228.754 49.9261 228.554 50.7315 228.545 51.6094V54.3324C228.545 55.4744 228.754 56.4545 229.172 57.2727C229.589 58.0824 230.173 58.7045 230.923 59.1392C231.673 59.5653 232.551 59.7784 233.557 59.7784C234.23 59.7784 234.839 59.6847 235.385 59.4972C235.93 59.3011 236.403 59.0156 236.804 58.6406C237.205 58.2656 237.507 57.8011 237.712 57.2472L242.033 57.733C241.76 58.875 241.24 59.8722 240.473 60.7244C239.714 61.5682 238.743 62.2244 237.558 62.6932C236.374 63.1534 235.018 63.3835 233.493 63.3835ZM250.358 56.8381L250.346 51.2514H251.087L258.144 43.3636H263.551L254.871 53.0284H253.912L250.358 56.8381ZM246.14 63V36.8182H250.767V63H246.14ZM258.463 63L252.071 54.0639L255.191 50.804L263.999 63H258.463ZM272.286 63.3963C271.042 63.3963 269.921 63.1747 268.924 62.7315C267.935 62.2798 267.151 61.6151 266.572 60.7372C266.001 59.8594 265.715 58.777 265.715 57.4901C265.715 56.3821 265.92 55.4659 266.329 54.7415C266.738 54.017 267.296 53.4375 268.004 53.0028C268.711 52.5682 269.508 52.2401 270.394 52.0185C271.289 51.7884 272.214 51.6222 273.168 51.5199C274.319 51.4006 275.252 51.294 275.968 51.2003C276.684 51.098 277.204 50.9446 277.528 50.7401C277.86 50.527 278.026 50.1989 278.026 49.7557V49.679C278.026 48.7159 277.741 47.9702 277.17 47.4418C276.599 46.9134 275.776 46.6491 274.702 46.6491C273.569 46.6491 272.67 46.8963 272.005 47.3906C271.349 47.8849 270.906 48.4687 270.675 49.142L266.354 48.5284C266.695 47.3352 267.258 46.3381 268.042 45.5369C268.826 44.7273 269.785 44.1222 270.918 43.7216C272.052 43.3125 273.305 43.108 274.677 43.108C275.623 43.108 276.565 43.2188 277.502 43.4403C278.44 43.6619 279.296 44.0284 280.072 44.5398C280.847 45.0426 281.469 45.7287 281.938 46.598C282.415 47.4673 282.654 48.554 282.654 49.858V63H278.205V60.3026H278.052C277.771 60.848 277.374 61.3594 276.863 61.8366C276.36 62.3054 275.725 62.6847 274.958 62.9744C274.2 63.2557 273.309 63.3963 272.286 63.3963ZM273.488 59.9957C274.417 59.9957 275.222 59.8125 275.904 59.446C276.586 59.071 277.11 58.5767 277.477 57.9631C277.852 57.3494 278.039 56.6804 278.039 55.956V53.642C277.894 53.7614 277.647 53.8722 277.298 53.9744C276.957 54.0767 276.573 54.1662 276.147 54.2429C275.721 54.3196 275.299 54.3878 274.881 54.4474C274.464 54.5071 274.102 54.5582 273.795 54.6009C273.104 54.6946 272.487 54.848 271.941 55.0611C271.396 55.2741 270.965 55.5724 270.65 55.956C270.335 56.331 270.177 56.8168 270.177 57.4134C270.177 58.2656 270.488 58.9091 271.11 59.3438C271.732 59.7784 272.525 59.9957 273.488 59.9957ZM287.308 70.3636V43.3636H291.859V46.6108H292.127C292.366 46.1335 292.702 45.6264 293.137 45.0895C293.572 44.544 294.16 44.0795 294.901 43.696C295.643 43.304 296.589 43.108 297.739 43.108C299.256 43.108 300.624 43.4957 301.843 44.2713C303.07 45.0384 304.042 46.1761 304.758 47.6847C305.482 49.1847 305.844 51.0256 305.844 53.2074C305.844 55.3636 305.491 57.196 304.783 58.7045C304.076 60.2131 303.113 61.3636 301.894 62.1562C300.675 62.9489 299.295 63.3452 297.752 63.3452C296.627 63.3452 295.694 63.1577 294.952 62.7827C294.211 62.4077 293.614 61.956 293.163 61.4276C292.719 60.8906 292.374 60.3835 292.127 59.9062H291.935V70.3636H287.308ZM291.846 53.1818C291.846 54.4517 292.025 55.5639 292.383 56.5185C292.749 57.473 293.273 58.2187 293.955 58.7557C294.646 59.2841 295.481 59.5483 296.461 59.5483C297.484 59.5483 298.34 59.2756 299.031 58.7301C299.721 58.1761 300.241 57.4219 300.59 56.4673C300.948 55.5043 301.127 54.4091 301.127 53.1818C301.127 51.9631 300.952 50.8807 300.603 49.9347C300.254 48.9886 299.734 48.2472 299.043 47.7102C298.353 47.1733 297.492 46.9048 296.461 46.9048C295.472 46.9048 294.633 47.1648 293.942 47.6847C293.252 48.2045 292.728 48.9332 292.37 49.8707C292.021 50.8082 291.846 51.9119 291.846 53.1818Z" fill="white"/>
<defs>
<clipPath id="clip0_3_3">
<rect width="60" height="70" fill="white" transform="translate(20 15)"/>
</clipPath>
</defs>
</svg>
