<svg width="100" height="100" viewBox="0 0 100 100" fill="none" xmlns="http://www.w3.org/2000/svg">
<g clip-path="url(#clip0_1_4)">
<path d="M70.9948 85.0001H24.2008C23.0878 85.0001 22.0202 84.5874 21.2326 83.8526C20.4449 83.1177 20.0016 82.1208 20 81.0809V18.9023C19.998 18.3894 20.1047 17.8812 20.314 17.407C20.5233 16.9328 20.831 16.502 21.2194 16.1395C21.6082 15.7744 22.0712 15.4856 22.581 15.29C23.0909 15.0943 23.6375 14.9958 24.1886 15.0001H75.7992C76.9129 15.0016 77.9804 15.4157 78.7679 16.1514C79.5553 16.8871 79.9984 17.8846 80 18.9251V68.0242V73.9259V84.983L70.9948 85.0001ZM76.3845 81.6505V73.8519V18.9251C76.3824 18.7804 76.3213 18.6419 76.2138 18.5377C76.1033 18.4352 75.9549 18.3761 75.7992 18.3725H24.2008C24.1194 18.3675 24.0377 18.3788 23.9613 18.4056C23.8849 18.4325 23.8155 18.4743 23.7577 18.5282C23.7 18.5821 23.6553 18.647 23.6265 18.7184C23.5978 18.7898 23.5857 18.8661 23.5911 18.9422V81.0809C23.5948 81.2236 23.6558 81.3598 23.7618 81.4625C23.8739 81.5664 24.0247 81.6256 24.1825 81.6277H76.3845V81.6505ZM31.5842 74.2449V70.7472H53.5942V74.2449H31.5842ZM31.5842 64.8626V61.3649H65.3369V64.8569L31.5842 64.8854V64.8626ZM65.3064 51.4585V54.9391H60.0082V51.4585H65.3064ZM55.8318 48.3652V54.9106H50.5335V48.3652H55.8318ZM46.3632 38.9886V54.9391H41.065V38.9886H46.3632ZM36.8886 32.4261V54.9106H31.5842V32.4261H36.8886ZM62.1543 32.5799L70.7266 32.6084C70.7232 33.6683 70.4957 34.7171 70.0573 35.6947C69.6189 36.6723 68.9782 37.5594 68.172 38.305C67.7945 38.6504 67.3844 38.9631 66.9465 39.2392L62.1543 32.5799ZM61.2763 30.9905L60.813 22.4456C60.8113 22.4052 60.8182 22.3649 60.8333 22.327C60.8483 22.2891 60.8712 22.2543 60.9007 22.2247C60.9301 22.1951 60.9655 22.1712 61.0049 22.1543C61.0442 22.1375 61.0867 22.1281 61.13 22.1266C63.5139 21.8987 66.3002 22.9697 68.0439 24.4622C69.8308 25.9997 70.9213 28.117 71.0924 30.381C71.0974 30.4617 71.0683 30.541 71.0112 30.6017C70.9542 30.6625 70.8738 30.6999 70.7876 30.7057L61.6421 31.3209C61.5558 31.3256 61.4709 31.2984 61.4059 31.2451C61.3408 31.1918 61.3009 31.1167 61.2946 31.0361L61.2763 30.9905ZM62.2457 30.381L69.7755 29.7316C69.2267 25.9661 66.2087 23.2488 61.8494 22.9412L62.2457 30.381ZM60.2398 32.2096L64.8369 39.6152C63.6652 40.2368 62.3615 40.6101 61.0182 40.7084C59.6749 40.8068 58.3248 40.6279 57.0638 40.1844C55.8027 39.741 54.6614 39.0438 53.7209 38.1423C52.7803 37.2408 52.0635 36.157 51.6212 34.9678C51.179 33.7786 51.022 32.513 51.1616 31.2609C51.3011 30.0087 51.7337 28.8005 52.4287 27.7219C53.1237 26.6433 54.0641 25.7208 55.1832 25.0196C56.3023 24.3185 57.5728 23.8559 58.9046 23.6647L60.2398 32.2096Z" fill="#155DFC"/>
</g>
<defs>
<clipPath id="clip0_1_4">
<rect width="60" height="70" fill="white" transform="translate(20 15)"/>
</clipPath>
</defs>
</svg>
